<svg width="18" height="18" viewBox="0 0 18 18" fill="none" xmlns="http://www.w3.org/2000/svg">
<path d="M14.229 9.4932L9.88201 13.8402C9.62865 14.0934 9.44885 14.4107 9.36181 14.7582L9.02431 16.1064C8.99102 16.2405 8.99299 16.3809 9.03001 16.514C9.06703 16.6471 9.13785 16.7684 9.23558 16.866C9.33332 16.9637 9.45465 17.0344 9.58779 17.0713C9.72093 17.1082 9.86135 17.11 9.99541 17.0766L11.3436 16.74C11.6911 16.6531 12.0085 16.4733 12.2616 16.2198L16.6086 11.8728C16.9201 11.5563 17.0939 11.1295 17.0921 10.6854C17.0903 10.2413 16.9131 9.8159 16.599 9.50194C16.2849 9.18797 15.8594 9.01087 15.4153 9.00923C14.9712 9.0076 14.5445 9.18156 14.2281 9.4932H14.229ZM6.30001 2.25C6.30001 2.13066 6.2526 2.0162 6.1682 1.93181C6.08381 1.84741 5.96935 1.8 5.85001 1.8C5.73066 1.8 5.6162 1.84741 5.53181 1.93181C5.44742 2.0162 5.40001 2.13066 5.40001 2.25V2.7H4.95001C4.59196 2.7 4.24859 2.84223 3.99541 3.09541C3.74224 3.34858 3.60001 3.69196 3.60001 4.05V14.85C3.60001 15.208 3.74224 15.5514 3.99541 15.8046C4.24859 16.0578 4.59196 16.2 4.95001 16.2H8.10271C8.10901 16.0974 8.12521 15.993 8.15131 15.8877L8.48881 14.5395C8.61479 14.0336 8.87614 13.5716 9.24481 13.203L13.5918 8.856C13.8237 8.62356 14.0981 8.43779 14.4 8.3088V4.05C14.4 3.69196 14.2578 3.34858 14.0046 3.09541C13.7514 2.84223 13.408 2.7 13.05 2.7H12.6V2.25C12.6 2.13066 12.5526 2.0162 12.4682 1.93181C12.3838 1.84741 12.2694 1.8 12.15 1.8C12.0307 1.8 11.9162 1.84741 11.8318 1.93181C11.7474 2.0162 11.7 2.13066 11.7 2.25V2.7H9.45001V2.25C9.45001 2.13066 9.4026 2.0162 9.3182 1.93181C9.23381 1.84741 9.11935 1.8 9.00001 1.8C8.88066 1.8 8.7662 1.84741 8.68181 1.93181C8.59742 2.0162 8.55001 2.13066 8.55001 2.25V2.7H6.30001V2.25ZM6.75001 6.3H11.25C11.3694 6.3 11.4838 6.34741 11.5682 6.43181C11.6526 6.5162 11.7 6.63066 11.7 6.75C11.7 6.86935 11.6526 6.98381 11.5682 7.0682C11.4838 7.15259 11.3694 7.2 11.25 7.2H6.75001C6.63066 7.2 6.5162 7.15259 6.43181 7.0682C6.34742 6.98381 6.30001 6.86935 6.30001 6.75C6.30001 6.63066 6.34742 6.5162 6.43181 6.43181C6.5162 6.34741 6.63066 6.3 6.75001 6.3ZM11.7 9.45C11.7 9.56935 11.6526 9.68381 11.5682 9.7682C11.4838 9.85259 11.3694 9.9 11.25 9.9H6.75001C6.63066 9.9 6.5162 9.85259 6.43181 9.7682C6.34742 9.68381 6.30001 9.56935 6.30001 9.45C6.30001 9.33066 6.34742 9.2162 6.43181 9.1318C6.5162 9.04741 6.63066 9 6.75001 9H11.25C11.3694 9 11.4838 9.04741 11.5682 9.1318C11.6526 9.2162 11.7 9.33066 11.7 9.45ZM6.75001 11.7H8.55001C8.66935 11.7 8.78381 11.7474 8.8682 11.8318C8.9526 11.9162 9.00001 12.0307 9.00001 12.15C9.00001 12.2694 8.9526 12.3838 8.8682 12.4682C8.78381 12.5526 8.66935 12.6 8.55001 12.6H6.75001C6.63066 12.6 6.5162 12.5526 6.43181 12.4682C6.34742 12.3838 6.30001 12.2694 6.30001 12.15C6.30001 12.0307 6.34742 11.9162 6.43181 11.8318C6.5162 11.7474 6.63066 11.7 6.75001 11.7Z" fill="#1D1E24"/>
</svg>
