<svg width="18" height="18" viewBox="0 0 18 18" fill="none" xmlns="http://www.w3.org/2000/svg">
<path d="M3.75 8.25H6.75C7.575 8.25 8.25 7.575 8.25 6.75V3.75C8.25 2.925 7.575 2.25 6.75 2.25H3.75C2.925 2.25 2.25 2.925 2.25 3.75V6.75C2.25 7.575 2.925 8.25 3.75 8.25ZM3.75 15.75H6.75C7.575 15.75 8.25 15.075 8.25 14.25V11.25C8.25 10.425 7.575 9.75 6.75 9.75H3.75C2.925 9.75 2.25 10.425 2.25 11.25V14.25C2.25 15.075 2.925 15.75 3.75 15.75ZM9.75 3.75V6.75C9.75 7.575 10.425 8.25 11.25 8.25H14.25C15.075 8.25 15.75 7.575 15.75 6.75V3.75C15.75 2.925 15.075 2.25 14.25 2.25H11.25C10.425 2.25 9.75 2.925 9.75 3.75ZM11.25 15.75H14.25C15.075 15.75 15.75 15.075 15.75 14.25V11.25C15.75 10.425 15.075 9.75 14.25 9.75H11.25C10.425 9.75 9.75 10.425 9.75 11.25V14.25C9.75 15.075 10.425 15.75 11.25 15.75Z" fill="#1D1E24"/>
</svg>
