<svg width="24" height="18" viewBox="0 0 24 18" fill="none" xmlns="http://www.w3.org/2000/svg">
<path d="M7.5 4.125C7.5 3.82663 7.61853 3.54048 7.8295 3.3295C8.04048 3.11853 8.32663 3 8.625 3H21.375C21.6734 3 21.9595 3.11853 22.1705 3.3295C22.3815 3.54048 22.5 3.82663 22.5 4.125C22.5 4.42337 22.3815 4.70952 22.1705 4.9205C21.9595 5.13147 21.6734 5.25 21.375 5.25H8.625C8.32663 5.25 8.04048 5.13147 7.8295 4.9205C7.61853 4.70952 7.5 4.42337 7.5 4.125ZM10.5 8.625C10.5 8.32663 10.6185 8.04048 10.8295 7.8295C11.0405 7.61853 11.3266 7.5 11.625 7.5H18.375C18.6734 7.5 18.9595 7.61853 19.1705 7.8295C19.3815 8.04048 19.5 8.32663 19.5 8.625C19.5 8.92337 19.3815 9.20952 19.1705 9.4205C18.9595 9.63147 18.6734 9.75 18.375 9.75H11.625C11.3266 9.75 11.0405 9.63147 10.8295 9.4205C10.6185 9.20952 10.5 8.92337 10.5 8.625ZM13.875 12C13.5766 12 13.2905 12.1185 13.0795 12.3295C12.8685 12.5405 12.75 12.8266 12.75 13.125C12.75 13.4234 12.8685 13.7095 13.0795 13.9205C13.2905 14.1315 13.5766 14.25 13.875 14.25H16.125C16.4234 14.25 16.7095 14.1315 16.9205 13.9205C17.1315 13.7095 17.25 13.4234 17.25 13.125C17.25 12.8266 17.1315 12.5405 16.9205 12.3295C16.7095 12.1185 16.4234 12 16.125 12H13.875Z" fill="#1D1E24"/>
<path fill-rule="evenodd" clip-rule="evenodd" d="M5.99999 3.75C6.09944 3.75 6.19482 3.78951 6.26515 3.85983C6.33548 3.93016 6.37499 4.02554 6.37499 4.125V12.9698L8.73449 10.6095C8.8049 10.5391 8.9004 10.4995 8.99999 10.4995C9.09957 10.4995 9.19507 10.5391 9.26549 10.6095C9.3359 10.6799 9.37546 10.7754 9.37546 10.875C9.37546 10.9746 9.3359 11.0701 9.26549 11.1405L6.26549 14.1405C6.23065 14.1754 6.18927 14.2031 6.14371 14.222C6.09815 14.2409 6.04931 14.2507 5.99999 14.2507C5.95066 14.2507 5.90182 14.2409 5.85626 14.222C5.8107 14.2031 5.76932 14.1754 5.73449 14.1405L2.73449 11.1405C2.66407 11.0701 2.62451 10.9746 2.62451 10.875C2.62451 10.7754 2.66407 10.6799 2.73449 10.6095C2.8049 10.5391 2.9004 10.4995 2.99999 10.4995C3.09957 10.4995 3.19507 10.5391 3.26549 10.6095L5.62499 12.9698V4.125C5.62499 4.02554 5.66449 3.93016 5.73482 3.85983C5.80515 3.78951 5.90053 3.75 5.99999 3.75Z" fill="#1D1E24"/>
</svg>
